<svg width="26" height="26" viewBox="0 0 26 26" fill="none" xmlns="http://www.w3.org/2000/svg">
<g clip-path="url(#clip0_83_222)">
<path d="M24.8873 24.882C24.0889 25.6804 21.4254 24.4729 18.3605 22.5627C18.3118 22.532 18.2706 22.4907 18.2399 22.4419C18.2093 22.3932 18.1899 22.3382 18.1833 22.2809C18.1767 22.2237 18.183 22.1657 18.2018 22.1113C18.2205 22.0568 18.2512 22.0072 18.2917 21.9662L18.8231 21.4332C18.9761 21.2879 18.9761 21.0432 18.8231 20.8979C18.6702 20.745 18.4331 20.745 18.2802 20.8979L17.5155 21.6626C17.4536 21.7256 17.3717 21.7652 17.2839 21.7747C17.1961 21.7842 17.1077 21.763 17.0337 21.7146C16.1931 21.1601 15.3662 20.5852 14.5538 19.9902C14.5077 19.9566 14.4697 19.9129 14.4428 19.8626C14.4159 19.8122 14.4007 19.7565 14.3983 19.6994C14.396 19.6424 14.4065 19.5855 14.4292 19.5331C14.4519 19.4807 14.4861 19.4341 14.5293 19.3968C14.998 19.0003 15.3441 18.4786 15.5273 17.8926C15.5566 17.7963 15.5475 17.6923 15.5019 17.6025C15.4562 17.5127 15.3777 17.444 15.2826 17.4109C15.2349 17.395 15.1845 17.3888 15.1344 17.3925C15.0843 17.3963 15.0354 17.4099 14.9906 17.4327C14.9458 17.4554 14.906 17.4869 14.8734 17.5251C14.8408 17.5634 14.8161 17.6077 14.8008 17.6556C14.5913 18.2704 14.2273 18.7353 13.6874 19.0672C13.6209 19.1056 13.5444 19.1234 13.4678 19.1183C13.3912 19.1133 13.3178 19.0857 13.2568 19.0389C11.7014 17.8674 10.2477 16.6966 9.09761 15.6956C9.03196 15.6397 8.98809 15.5625 8.97369 15.4775C8.95929 15.3925 8.97527 15.3051 9.01885 15.2307C9.33299 14.7033 9.83164 14.3112 10.4183 14.1303C10.6171 14.0615 10.7318 13.8473 10.663 13.6409C10.647 13.5936 10.6219 13.5499 10.589 13.5124C10.5561 13.4748 10.5162 13.4442 10.4714 13.4221C10.4266 13.4001 10.3779 13.3871 10.3281 13.384C10.2783 13.3809 10.2284 13.3876 10.1812 13.4038C9.5289 13.6179 8.9959 13.9315 8.50955 14.4591C8.31073 14.6732 8.08437 14.8415 7.87408 14.6373C5.59526 12.4258 3.9932 9.96034 5.86137 7.40852C5.86902 7.39322 5.87667 7.37793 5.89196 7.37028C6.09843 7.10263 6.32785 6.83499 6.5802 6.58263C8.31608 4.84675 10.0634 4.55922 12.1197 5.79652C12.2994 5.9051 12.3491 6.14293 12.249 6.32799C11.9446 6.88469 11.4498 7.28463 10.7478 7.54693C10.5567 7.6234 10.4496 7.84516 10.5261 8.04399C10.5873 8.19693 10.7326 8.28869 10.8855 8.28869C10.9314 8.28869 10.9773 8.28105 11.0231 8.26575C11.8376 7.95528 12.4493 7.47046 12.8508 6.82046C12.8797 6.77585 12.9177 6.73793 12.9625 6.70926C13.0072 6.68058 13.0575 6.66181 13.1101 6.65421C13.1627 6.6466 13.2163 6.65034 13.2674 6.66516C13.3184 6.67999 13.3656 6.70556 13.406 6.74016C14.332 7.5324 15.2007 8.51658 16.0916 9.55352C16.2316 9.71716 16.2239 9.97563 16.0541 10.1079C15.5418 10.5063 15.1533 11.0562 14.8918 11.7444C14.823 11.9432 14.9224 12.165 15.1212 12.2338C15.1594 12.2568 15.2053 12.2568 15.2512 12.2568C15.4041 12.2568 15.5494 12.165 15.6106 12.012C15.8263 11.4408 16.1352 11.0026 16.5504 10.6937C16.6286 10.6317 16.7278 10.6026 16.827 10.6126C16.9263 10.6226 17.0177 10.6709 17.0819 10.7472C21.0958 15.6949 26.3456 23.4245 24.8873 24.882ZM6.50755 4.67852C6.75073 4.99969 6.70179 5.45393 6.39743 5.71852C6.08849 5.98616 5.9822 6.09322 5.71073 6.40216C5.58357 6.54721 5.40628 6.63885 5.21441 6.6587C5.02254 6.67856 4.83025 6.62516 4.67608 6.50922C1.24561 3.92069 1.51326 4.01934 1.14849 3.75628C1.00454 3.63873 0.907596 3.47339 0.875314 3.29036C0.843032 3.10734 0.87756 2.91881 0.97261 2.7591C1.40598 2.02304 2.02005 1.40977 2.75667 0.97734C3.08702 0.781575 3.51373 0.853457 3.75537 1.15322C6.3569 4.37416 6.21773 4.33593 6.50832 4.67852H6.50755ZM4.48873 8.46687C4.46961 8.5219 4.43812 8.5718 4.39668 8.61275C4.35525 8.6537 4.30497 8.68459 4.24972 8.70306C4.19447 8.72152 4.13572 8.72707 4.07799 8.71926C4.02026 8.71146 3.96509 8.69052 3.91673 8.65805L1.86961 7.29993C1.8009 7.25359 1.74219 7.19393 1.69696 7.12449C1.65173 7.05505 1.62089 6.97723 1.60627 6.89566C1.59165 6.81409 1.59355 6.73041 1.61186 6.64958C1.63016 6.56875 1.66451 6.49242 1.71285 6.42511C1.77785 6.33334 1.84437 6.24387 1.91243 6.15516C2.01117 6.02486 2.15741 5.93888 2.31928 5.91596C2.48116 5.89304 2.64552 5.93504 2.77655 6.03281L4.59579 7.41081C4.89785 7.64022 4.6822 7.90634 4.48873 8.4661V8.46687ZM8.46367 4.49575C7.95973 4.66628 7.6439 4.90105 7.4122 4.59516L5.93402 2.64822C5.87554 2.57203 5.84808 2.47651 5.85716 2.38089C5.86624 2.28527 5.91119 2.19664 5.98296 2.13281C6.15961 1.97528 6.40202 1.76575 6.63143 1.59063C6.67316 1.55938 6.72085 1.53703 6.77156 1.52495C6.82228 1.51288 6.87493 1.51135 6.92626 1.52046C6.97759 1.52956 7.0265 1.54911 7.06997 1.57788C7.11344 1.60666 7.15053 1.64405 7.17896 1.68775L8.65867 3.92222C8.69121 3.97097 8.71208 4.02655 8.71966 4.08467C8.72725 4.14278 8.72135 4.20186 8.70241 4.25733C8.68348 4.31279 8.65203 4.36315 8.61049 4.4045C8.56896 4.44585 8.51846 4.47707 8.4629 4.49575H8.46367Z" fill="#282738"/>
</g>
<defs>
<clipPath id="clip0_83_222">
<rect width="26" height="26" fill="white"/>
</clipPath>
</defs>
</svg>
