<svg width="14" height="14" viewBox="0 0 14 14" fill="none" xmlns="http://www.w3.org/2000/svg">
<path d="M8.70243 0C9.64043 0 10.1094 0.6384 10.1094 1.3699C10.1094 2.2834 9.29463 3.1283 8.23413 3.1283C7.34583 3.1283 6.82783 2.6033 6.85233 1.7353C6.85233 1.0052 7.46903 0 8.70243 0ZM5.81633 14C5.07573 14 4.53323 13.5436 5.05123 11.5332L5.90103 7.9688C6.04873 7.399 6.07323 7.1701 5.90103 7.1701C5.67913 7.1701 4.71873 7.5635 4.14963 7.952L3.78003 7.336C5.58043 5.8058 7.65173 4.9091 8.54073 4.9091C9.28063 4.9091 9.40383 5.8002 9.03423 7.1701L8.06053 10.9165C7.88833 11.578 7.96183 11.8062 8.13473 11.8062C8.35663 11.8062 9.08463 11.5318 9.80003 10.9613L10.22 11.5311C8.46863 13.314 6.55553 14 5.81633 14Z" fill="white"/>
</svg>
