<svg width="22" height="22" viewBox="0 0 22 22" fill="none" xmlns="http://www.w3.org/2000/svg">
<path fill-rule="evenodd" clip-rule="evenodd" d="M6.16554 5.5C5.9832 5.5093 5.81203 5.59065 5.68967 5.72615C5.56732 5.86166 5.5038 6.04022 5.5131 6.22256C5.5224 6.4049 5.60375 6.57607 5.73926 6.69843C5.87477 6.82078 6.05333 6.8843 6.23566 6.875H15.7644C15.9467 6.875 16.1216 6.80256 16.2505 6.67363C16.3795 6.5447 16.4519 6.36983 16.4519 6.1875C16.4519 6.00516 16.3795 5.83029 16.2505 5.70136C16.1216 5.57243 15.9467 5.5 15.7644 5.5H6.23566C6.21276 5.49885 6.18982 5.49885 6.16691 5.5H6.16554ZM6.16554 9.625C5.9832 9.6343 5.81203 9.71565 5.68967 9.85116C5.56732 9.98666 5.5038 10.1652 5.5131 10.3476C5.5224 10.5299 5.60375 10.7011 5.73926 10.8234C5.87477 10.9458 6.05333 11.0093 6.23566 11H15.7644C15.9467 11 16.1216 10.9276 16.2505 10.7986C16.3795 10.6697 16.4519 10.4948 16.4519 10.3125C16.4519 10.1302 16.3795 9.95529 16.2505 9.82636C16.1216 9.69743 15.9467 9.625 15.7644 9.625H6.23566C6.21276 9.62385 6.18982 9.62385 6.16691 9.625H6.16554ZM6.16554 13.75C5.9832 13.7593 5.81203 13.8406 5.68967 13.9762C5.56732 14.1117 5.5038 14.2902 5.5131 14.4726C5.5224 14.6549 5.60375 14.8261 5.73926 14.9484C5.87477 15.0708 6.05333 15.1343 6.23566 15.125H15.7644C15.9467 15.125 16.1216 15.0526 16.2505 14.9236C16.3795 14.7947 16.4519 14.6198 16.4519 14.4375C16.4519 14.2552 16.3795 14.0803 16.2505 13.9514C16.1216 13.8224 15.9467 13.75 15.7644 13.75H6.23566C6.21276 13.7489 6.18982 13.7489 6.16691 13.75H6.16554Z" fill="black"/>
</svg>
